<svg xmlns="http://www.w3.org/2000/svg" width="128" height="128" viewBox="0 0 128 128" role="img" aria-labelledby="title desc">
  <title id="title">IA watching eye</title>
  <desc id="desc">A clean artificial intelligence chip with an eye symbol, showing that IA is watching.</desc>
  <rect width="128" height="128" rx="18" fill="#f7f8fa"/>
  <circle cx="64" cy="64" r="40" fill="#ffffff" stroke="#d9dee7" stroke-width="3"/>
  <rect x="38" y="38" width="52" height="52" rx="12" fill="#111827"/>
  <path d="M48 38v-8M60 38v-8M72 38v-8M84 38v-8M48 98v-8M60 98v-8M72 98v-8M84 98v-8" stroke="#2563eb" stroke-width="4" stroke-linecap="round"/>
  <path d="M38 50h-8M38 64h-8M38 78h-8M98 50h-8M98 64h-8M98 78h-8" stroke="#2563eb" stroke-width="4" stroke-linecap="round"/>
  <text x="64" y="51" fill="#ffffff" font-family="Arial, Helvetica, sans-serif" font-size="17" font-weight="700" text-anchor="middle">IA</text>
  <path d="M45 64s7-13 19-13 19 13 19 13-7 13-19 13-19-13-19-13Z" fill="none" stroke="#ffffff" stroke-width="4" stroke-linejoin="round"/>
  <circle cx="64" cy="64" r="7" fill="#0f766e"/>
</svg>
